<?xml version="1.0" encoding="utf-8"?>
<!-- Generator: Adobe Illustrator 24.1.3, SVG Export Plug-In . SVG Version: 6.00 Build 0)  -->
<svg version="1.1" xmlns="http://www.w3.org/2000/svg" xmlns:xlink="http://www.w3.org/1999/xlink" x="0px" y="0px"
	 viewBox="0 0 512 326.8" style="enable-background:new 0 0 512 326.8;" xml:space="preserve">
<style type="text/css">
	.st0{fill:#1A4A9A;}
	.st1{fill:#4C5967;}
	.st2{display:none;}
</style>
<g id="Livello_1">
	<g>
		<g>
			<path class="st0" d="M105.5,10.1c5.8-1.7,12.4,1.3,14.9,6.7c2.6,5.2,1.1,12-3.5,15.6c-4.1,3.4-10.4,3.8-14.9,0.9
				c-4.6-2.8-7-8.6-5.7-13.8C97.5,15,101.1,11.3,105.5,10.1z"/>
			<path class="st0" d="M166.2,10.1c5.6-1.7,12.1,1.1,14.8,6.3c2.9,5.3,1.5,12.4-3.3,16.1c-4.1,3.3-10.2,3.7-14.6,0.9
				c-4.3-2.5-6.8-7.7-6.1-12.6C157.6,15.8,161.4,11.4,166.2,10.1z"/>
			<path class="st0" d="M137.2,18.9c7.1-1.3,14.4,4.4,14.7,11.6c0.8,6.9-5,13.6-11.9,13.9c-6.6,0.6-12.9-4.6-13.6-11.2
				C125.5,26.5,130.6,19.8,137.2,18.9z"/>
			<path class="st0" d="M441,24.8c13.1-5.3,27.5-5.8,41.4-4.4c9.3,1.3,18.6,3.1,27,7.3c0.2,3.2,0,6.6-1.4,9.5
				c-1.4,3-3.4,5.8-5.6,8.2c-9.2-3-18.7-5.3-28.4-5.4c-7.4-0.2-15,0.8-21.9,3.7c-7.6,3.2-13.6,9.7-17.3,17
				c-5.4,10.7-7.3,22.8-8,34.7c-0.5,9.2-0.4,18.5,0.5,27.7c0.9,9.3,2.9,18.6,6.9,27.1c2.6,5.4,6.3,10.3,11.1,13.9
				c5,3.8,11.1,5.7,17.2,6.6c7.8,1.2,15.8,0.8,23.7-0.1c6.3-0.8,12.5-2.3,18.4-4.5c5,4.7,6.8,11.6,7.2,18.2c-8.5,4-17.8,6-27.1,7.1
				c-10,1-20.2,1.3-30.2-0.4c-10.9-1.8-21.6-6.4-29.7-14c-9.2-8.4-15-19.8-18.3-31.7c-4.3-15.3-5.1-31.4-4.6-47.3
				c0.6-13.9,2.6-27.9,7.8-40.8c2.8-6.9,6.7-13.5,11.8-19C427,32.3,433.7,27.7,441,24.8z"/>
			<path class="st0" d="M343.9,23.7c2.1-0.4,4-1.1,6.1-1.4c5.9-0.6,11.9-0.3,17.6,1.4c0,54.9,0,109.8,0,164.7
				c-3.8,1.4-7.9,1.6-11.9,1.6c-4,0-8.2,0-11.9-1.6C344,133.5,343.9,78.6,343.9,23.7z"/>
			<path class="st0" d="M83.2,32.1c6.1-1.8,13.2,1.9,15.3,7.9c2.3,5.8-0.4,13-6,15.8C87,58.9,79.5,57.2,76,52
				c-3.8-5.1-2.9-12.8,1.8-16.9C79.3,33.7,81.2,32.7,83.2,32.1z"/>
			<path class="st0" d="M189.1,32.1c5.3-1.4,11.2,1,14,5.7c2.8,4.4,2.5,10.5-0.7,14.5c-3.4,4.6-10,6.3-15.2,4
				c-5-2.1-8.3-7.6-7.7-13.1C179.9,38,183.9,33.3,189.1,32.1z"/>
			<path class="st0" d="M51.5,38.3c5.9-2,13,1.2,15.4,6.9c2.7,5.7,0.5,13.1-4.9,16.2c-4.4,2.8-10.4,2.5-14.5-0.7
				c-3.8-2.9-5.8-8-4.8-12.6C43.5,43.5,47.1,39.6,51.5,38.3z"/>
			<path class="st0" d="M219.4,38.3c5.1-1.7,11.1,0.2,14.3,4.6c2.7,3.5,3.3,8.5,1.6,12.5c-1.6,4-5.4,7.1-9.7,7.8
				c-6.5,1.3-13.4-3.3-14.7-9.8C209.3,47.1,213.3,40.2,219.4,38.3z"/>
			<path class="st0" d="M114.8,40.8c6.1-1.1,12.6,3,14.3,9c1.9,5.9-1.3,12.9-7,15.4c-4.4,2-9.8,1.3-13.5-1.8c-4-3.2-5.6-9-4-13.9
				C106,45,110.1,41.5,114.8,40.8z"/>
			<path class="st0" d="M159.2,41c6.6-1.6,13.8,3,15.2,9.7c1.8,6.8-3.2,14.3-10.1,15.4c-6.7,1.4-13.8-3.4-14.9-10.1
				C147.8,49.4,152.5,42.2,159.2,41z"/>
			<path class="st0" d="M74.3,61.8c6.4-1.3,13.3,3.1,14.7,9.5c1.6,5.9-1.7,12.6-7.4,14.9c-5.5,2.5-12.5,0.4-15.8-4.8
				c-2.4-3.6-2.8-8.4-1-12.3C66.6,65.4,70.2,62.5,74.3,61.8z"/>
			<path class="st0" d="M199.1,62c6.1-1.6,12.9,2.1,14.9,8c2.4,6-0.7,13.5-6.6,16.1c-5.6,2.8-13.1,0.6-16.3-4.8
				c-2.3-3.6-2.6-8.4-0.8-12.3C192.1,65.5,195.4,62.8,199.1,62z"/>
			<path class="st0" d="M133.9,64.7c5.2-2.5,11.9-0.9,15.3,3.7c3.7,4.5,3.7,11.6,0,16c-2,2.5-4.9,4.1-7.9,4.6
				c-1.4,0.2-2.7,0.2-4.1,0c-5.5-0.8-10.1-5.5-10.7-11.1C125.7,72.6,128.9,66.9,133.9,64.7z"/>
			<path class="st0" d="M42.3,68.1c6.7-1.9,14.2,2.7,15.6,9.5c1.8,6.7-2.9,14.2-9.7,15.5c-6.7,1.7-14.1-3-15.3-9.8
				C31.3,76.7,35.7,69.6,42.3,68.1z"/>
			<path class="st0" d="M229.9,68.1c6.1-1.7,13,1.7,15.2,7.6c2.4,5.8-0.1,13-5.7,16c-5.5,3.2-13.1,1.5-16.7-3.7
				c-3.8-5-2.9-12.8,1.8-16.9C226.1,69.7,227.9,68.7,229.9,68.1z"/>
			<path class="st0" d="M99.3,74c5.9-2.8,13.7-0.1,16.6,5.8c3.2,5.8,0.9,13.8-4.8,17c-1.2,0.6-2.4,1.1-3.7,1.5
				c-6.3,1.6-13.4-2.5-15.1-8.8C90.4,83.5,93.5,76.5,99.3,74z"/>
			<path class="st0" d="M162.8,79.6c2.9-5.7,10.6-8.3,16.4-5.6c6.1,2.5,9.3,10,6.9,16.2c-2.1,6-8.9,9.7-15.1,8.1
				c-1.3-0.4-2.5-0.9-3.7-1.5C161.7,93.3,159.5,85.3,162.8,79.6z"/>
			<path class="st0" d="M17.6,87.7c6.1-1.6,13,2,15.1,8c2.3,5.8-0.4,12.9-5.9,15.7c-4.4,2.5-10.3,1.9-14.2-1.3
				c-4-3.2-5.7-8.8-4.2-13.7C9.6,92.2,13.3,88.7,17.6,87.7z"/>
			<path class="st0" d="M254.1,87.9c6.2-2.2,13.7,1.4,15.9,7.7c2.4,6-0.6,13.5-6.5,16.1c-5.7,2.8-13.3,0.6-16.4-4.9
				c-3.4-5.3-2-13,3.1-16.8C251.3,89.1,252.7,88.4,254.1,87.9z"/>
			<path class="st0" d="M71.4,99.8c3.4-3.6,8.9-4.9,13.6-3.2c4.6,1.6,8,6,8.4,10.8c0.4,3.4-0.7,6.9-2.9,9.5c-0.9,1-1.9,1.9-3,2.6
				c-5.2,3.4-12.8,2.3-16.7-2.6C66.6,112.1,66.9,104.2,71.4,99.8z"/>
			<path class="st0" d="M189.4,99.1c4.8-4.6,13.2-4.3,17.7,0.5c4.6,4.5,4.9,12.6,0.6,17.4c-4,4.8-11.5,5.8-16.7,2.4
				c-1.1-0.8-2.1-1.6-3-2.6C183.8,111.7,184.4,103.5,189.4,99.1z"/>
			<path class="st0" d="M48.4,98.9c6.5-1.2,13.3,3.3,14.6,9.8c1.6,6.2-2.3,13.1-8.3,15c-5.8,2.1-12.9-0.7-15.6-6.3
				c-1.8-3.6-1.8-8,0-11.6C40.9,102.2,44.5,99.6,48.4,98.9z"/>
			<path class="st0" d="M225.9,98.9c6.1-1.2,12.7,2.9,14.4,8.9c2,6.2-1.5,13.5-7.6,15.7c-4.9,2-10.8,0.5-14.3-3.5
				c-3.3-3.7-4.1-9.2-2.1-13.7C218,102.5,221.8,99.6,225.9,98.9z"/>
			<path class="st0" d="M22.1,119.1c5.5-1.7,11.9,0.9,14.7,5.9c2.7,4.6,2.1,10.8-1.4,14.7c-3.6,4.3-10.2,5.7-15.2,3.2
				c-5-2.3-8.1-8.1-7.2-13.6C13.7,124.6,17.4,120.4,22.1,119.1z"/>
			<path class="st0" d="M249.2,119.1c6.5-2.2,14.2,1.9,16,8.5c2.1,6.2-1.4,13.5-7.5,15.7c-5.7,2.4-12.8-0.1-15.8-5.5
				c-3.1-5.2-1.9-12.5,2.8-16.3C246.1,120.4,247.6,119.6,249.2,119.1z"/>
			<path class="st0" d="M60.7,127.7c3.1-3,7.6-4.2,11.8-3.2c4.5,1,8.3,4.7,9.5,9.2c0.6,2.4,0.6,5-0.2,7.4c-0.5,1.2-1.1,2.4-1.8,3.5
				c-3.4,4.9-10.4,6.7-15.7,4.1c-4-1.8-6.8-5.7-7.3-10C56.3,134.6,57.7,130.5,60.7,127.7z"/>
			<path class="st0" d="M199.5,128.6c4.1-4.8,11.8-5.8,16.9-2.1c5,3.3,7,10.2,4.5,15.6c-2.1,5.2-8,8.5-13.6,7.6
				c-3.4-0.5-6.6-2.4-8.6-5.2c-0.8-1.1-1.3-2.3-1.8-3.6C195.6,136.7,196.5,131.9,199.5,128.6z"/>
			<path class="st0" d="M41.4,144.1c6.7-2,14.2,2.6,15.7,9.3c1.8,6.6-2.6,14-9.3,15.5c-6.7,1.9-14.3-2.8-15.7-9.7
				C30.5,152.8,34.9,145.7,41.4,144.1z"/>
			<path class="st0" d="M231.2,144c5.4-1.3,11.4,1.4,14,6.3c2.6,4.6,1.9,10.9-1.7,14.8c-3.8,4.4-10.7,5.5-15.7,2.7
				c-4.8-2.6-7.6-8.4-6.4-13.8C222.3,149.1,226.3,145,231.2,144z"/>
			<path class="st0" d="M10.2,147.7c6.8-1.6,14.2,3.4,15.2,10.3c1.4,6.8-3.7,14-10.6,14.9c-6.7,1.3-13.8-3.8-14.7-10.6
				C-1,155.7,3.7,148.9,10.2,147.7z"/>
			<path class="st0" d="M262.9,147.7c6.3-1.6,13.2,2.4,15.1,8.5c2.1,6-1.1,13.2-7,15.7c-5.8,2.7-13.4,0.2-16.4-5.5
				c-3.2-5.5-1.5-13.2,3.8-16.8C259.8,148.8,261.3,148.1,262.9,147.7z"/>
			<path class="st0" d="M60.5,172c-0.9-6.7,4.4-13.3,11.1-14.1c6.5-1,13.1,3.7,14.3,10.1c0.2,1.3,0.3,2.6,0.2,3.9
				c-0.5,6.3-6.3,11.6-12.7,11.5C66.9,183.6,61,178.3,60.5,172z"/>
			<path class="st0" d="M192.9,168c1.2-6.3,7.7-11,14-10.1c6.6,0.6,12,7.1,11.3,13.7c-0.3,6.6-6.5,12.2-13.1,11.9
				c-6.3,0-11.9-5.3-12.5-11.5C192.6,170.6,192.6,169.3,192.9,168z"/>
			<path class="st0" d="M28.7,173.1c6-1.5,12.7,2,14.8,7.7c2.4,5.7-0.1,13-5.6,15.9c-5.4,3.2-12.9,1.6-16.6-3.5
				c-2.8-3.7-3.3-8.9-1.3-13.1C21.6,176.6,24.9,174,28.7,173.1z"/>
			<path class="st0" d="M244.8,173c6.4-1.3,13.3,3.1,14.7,9.5c1.7,6.2-2.2,13.3-8.3,15.2c-6,2.2-13.3-1-15.8-6.8
				c-2.7-5.6-0.6-12.8,4.7-16.1C241.5,173.9,243.1,173.3,244.8,173z"/>
		</g>
		<g>
			<g>
				<path class="st1" d="M137.2,89c1.4,0.2,2.7,0.2,4.1,0c0,69.7,0,139.3,0,209c2.6,0.7,5.1,2.4,6.4,4.8c2,3.5,1.4,8.2-1.3,11.1
					c-2.6,3-7.3,4-10.9,2.4c-4-1.6-6.4-6.1-5.7-10.3c0.5-3.9,3.7-7.1,7.4-8C137.2,228.4,137.2,158.7,137.2,89z M138.4,304.8
					c-1.9,0.5-2.7,3.2-1.3,4.6c1.3,1.5,4,1,4.7-0.8C142.8,306.6,140.6,304.1,138.4,304.8z"/>
			</g>
			<g>
				<path class="st1" d="M107.4,98.2c1.3-0.3,2.5-0.8,3.7-1.5c5.4,13.1,10.8,26.1,16.3,39.2c1.5,3.7,3.2,7.4,4.2,11.2
					c1.3,4.6,1.9,9.4,2,14.2c0,30.9,0,61.8,0,92.7c0,2.8,0.1,5.7-0.8,8.4c-1.8,5.7-3.6,11.3-5.4,17c1.9,1.1,3.7,2.7,4.6,4.7
					c1.6,3.3,1,7.5-1.5,10.3c-2,2.4-5.3,3.6-8.4,3.2c-3.3-0.3-6.2-2.5-7.6-5.4c-1.6-3.4-1-7.7,1.5-10.5c1.9-2.2,4.7-3.2,7.5-3.3
					c1.4-4.3,2.7-8.6,4.1-12.9c0.8-2.8,2.1-5.5,1.9-8.5c0-32.1,0-64.2,0-96.3c0-6.2-1.3-12.5-3.7-18.2
					C119.7,127.9,113.5,113.1,107.4,98.2z M121.8,285.9c-1.7,0.9-1.9,3.6-0.2,4.7c1.7,1.3,4.4-0.1,4.4-2.2
					C126.2,286.3,123.6,284.7,121.8,285.9z"/>
			</g>
			<g>
				<path class="st1" d="M167.4,96.7c1.1,0.7,2.4,1.2,3.7,1.5c-5.5,13.4-11.1,26.8-16.6,40.2c-1.2,3-2.6,6-3.5,9.2
					c-1.3,4.5-2,9.2-2,13.9c0,31.1,0,62.1,0,93.2c0,2.3-0.1,4.7,0.6,7c1.8,5.7,3.6,11.4,5.4,17.1c2.8,0.1,5.7,1.1,7.5,3.3
					c3,3.3,3.2,8.7,0.5,12.2c-2.6,3.6-8,4.9-12,2.8c-3.7-1.8-6-6.2-5.2-10.3c0.5-3.1,2.6-5.7,5.3-7.1c-1.3-4.2-2.6-8.4-3.9-12.5
					c-0.9-3.1-2.2-6.1-2.1-9.3c0-30,0-60.1,0-90.1c0-4-0.2-8.1,0.3-12.1c0.6-5,1.8-9.9,3.8-14.6C155.2,126.2,161.3,111.4,167.4,96.7
					z M153.8,285.9c-1.7,0.9-1.9,3.5-0.4,4.6c1.5,1.4,4.3,0.4,4.6-1.7C158.5,286.6,155.8,284.6,153.8,285.9z"/>
			</g>
			<g>
				<path class="st1" d="M87.5,119.5c1.1-0.7,2.1-1.6,3-2.6c8.5,9.4,16.9,18.9,25.4,28.3c1.8,2,3.7,4,5.2,6.2
					c3,4.5,4.7,9.9,4.7,15.3c0,25.8,0,51.6,0,77.3c0,2.4,0.1,4.8-0.3,7.1c-0.5,3-1.7,5.8-3.4,8.3c-6.3,9.1-12.5,18.3-18.8,27.4
					c1.6,1.3,3,3,3.5,5c1.1,3.5,0.1,7.5-2.6,10c-2.6,2.5-6.7,3.3-10.1,1.9c-3.2-1.2-5.6-4.3-6-7.8c-0.5-3.4,1.1-7,3.9-9
					c2.1-1.6,4.9-2.1,7.6-1.7c5.4-7.8,10.7-15.6,16.1-23.4c2-3.1,4.5-5.9,5.5-9.5c0.8-2.5,0.8-5.2,0.7-7.8c0-25.9,0-51.8,0-77.8
					c0-5.7-2.2-11.4-6.1-15.7C106.4,140.5,96.9,130,87.5,119.5z M96.7,292.1c-2,0.6-2.6,3.4-1,4.7c1.4,1.5,4.2,0.7,4.6-1.4
					C101,293.4,98.7,291.3,96.7,292.1z"/>
			</g>
			<g>
				<path class="st1" d="M159,149.2c9.7-10.8,19.4-21.6,29.1-32.4c0.9,1,1.9,1.9,3,2.6c-8.8,9.8-17.5,19.5-26.3,29.3
					c-1.3,1.5-2.7,2.9-3.9,4.5c-2.8,3.9-4.3,8.7-4.3,13.5c0,27,0,53.9,0,80.9c0,3.7,1.4,7.3,3.6,10.3c6.3,9.1,12.5,18.2,18.8,27.3
					c2.3-0.3,4.7-0.1,6.7,1.2c2.9,1.6,4.8,4.9,4.8,8.2c0.1,3.5-1.9,6.9-4.9,8.5c-3.2,1.8-7.3,1.6-10.3-0.6c-3.1-2.1-4.6-6.1-3.9-9.7
					c0.4-2.4,1.9-4.5,3.8-6c-6.6-9.6-13.2-19.1-19.7-28.8c-2-3.3-2.9-7.1-2.9-10.9c0-25.4,0-50.7,0-76c0-2.5-0.1-5,0.2-7.4
					C153.4,158.4,155.6,153.2,159,149.2z M179.8,292.1c-2,0.7-2.4,3.6-0.7,4.8c1.5,1.3,4.1,0.4,4.5-1.5
					C184.2,293.3,181.8,291.2,179.8,292.1z"/>
			</g>
			<g>
				<path class="st1" d="M81.7,141c9.7,5.7,19.5,11.4,29.2,17.1c4.4,2.5,7.3,7.5,7.2,12.6c0,22.4,0,44.8,0,67.2
					c-0.1,4.9-1.8,10-5.6,13.3c-4.6,4.5-9,9.2-13.6,13.7c1,1.6,1.9,3.5,1.9,5.5c0.2,3.7-2,7.5-5.4,9.1c-3,1.5-6.7,1.2-9.5-0.6
					c-3.1-2-4.8-5.8-4.3-9.4c0.4-3.6,3.1-6.8,6.6-7.8c2.5-0.8,5.3-0.4,7.6,0.7c4.6-4.6,9.2-9.3,13.8-13.9c3.1-2.7,4.5-6.9,4.5-11
					c0-22.1,0-44.2,0-66.3c0.1-3.9-2-7.7-5.4-9.6c-9.6-5.6-19.3-11.3-28.9-16.9C80.6,143.5,81.2,142.3,81.7,141z M89.7,268.4
					c-1.8,1-1.7,3.9,0.1,4.8c1.7,1.1,4.3-0.3,4.2-2.3C94.2,268.7,91.5,267.2,89.7,268.4z"/>
			</g>
			<g>
				<path class="st1" d="M169.7,156.8c9.1-5.3,18.1-10.6,27.2-15.9c0.4,1.2,1,2.5,1.8,3.6c-9.7,5.7-19.4,11.4-29.1,17
					c-3.3,1.9-5.5,5.7-5.4,9.6c0,22,0,43.9,0,65.9c-0.1,4.2,1.2,8.6,4.5,11.4c4.7,4.6,9.2,9.3,13.8,13.9c2.5-1.2,5.4-1.6,8-0.6
					c3.5,1.2,6,4.6,6.3,8.2c0.3,3.4-1.3,6.8-4.1,8.7c-3,2.1-7.2,2.3-10.3,0.4c-3.1-1.7-5-5.2-4.8-8.7c0-2,0.8-3.9,1.9-5.5
					c-4.5-4.5-8.9-9.1-13.4-13.5c-3.9-3.3-5.8-8.5-5.8-13.5c0-22.3,0-44.5,0-66.8c-0.1-4.1,1.6-8.1,4.5-10.9
					C166.2,158.8,168,157.8,169.7,156.8z M185.9,268.3c-1.9,0.9-2,3.8-0.2,4.8c1.7,1.3,4.4-0.2,4.3-2.3
					C190.2,268.8,187.7,267.3,185.9,268.3z"/>
			</g>
			<g>
				<path class="st1" d="M85.8,168c4.6-0.1,9.3,0.1,13.9,0.2c2.9,0.1,6,0.5,8.2,2.6c2.1,2,2.6,5,2.6,7.8c0,18.2,0,36.4,0,54.6
					c0.1,3.6-1.1,7.2-3.5,10c-2,2.4-4.8,3.9-7.5,5.3c-5.8,2.8-11.9,5-17.8,7.3c0.1,2.7-0.6,5.5-2.5,7.5c-2.5,2.9-6.9,4-10.6,2.6
					c-3.5-1.3-6.1-4.8-6.2-8.5c-0.2-3.3,1.5-6.6,4.2-8.5c3-2,7.1-2.2,10.1-0.4c1.5,0.8,2.6,2.1,3.6,3.4c6.9-2.7,14-5.1,20.5-8.8
					c3.4-1.9,5.7-5.6,5.7-9.5c0-18.5,0-36.9,0-55.4c0-1.7-0.3-3.6-1.7-4.7c-1.5-1.1-3.4-1.1-5.2-1.3c-4.6-0.1-9.1-0.2-13.7-0.2
					C86.1,170.6,86,169.3,85.8,168z M70.8,254.3c-1.8,0.8-2.1,3.5-0.6,4.7c1.6,1.4,4.3,0.3,4.6-1.7
					C75.2,255.1,72.7,253.2,70.8,254.3z"/>
			</g>
			<g>
				<path class="st1" d="M171,170.4c2.4-1.9,5.7-2.1,8.7-2.2c4.4-0.1,8.8-0.2,13.2-0.1c-0.2,1.3-0.3,2.6-0.2,3.9
					c-4.6,0-9.3,0.1-13.9,0.2c-1.8,0.1-3.9,0.2-5.4,1.5c-1.3,1.2-1.4,3.2-1.5,4.9c0,18.3,0,36.7,0,55c0,3.2,1.5,6.4,4.1,8.4
					c1.8,1.4,3.9,2.4,5.9,3.4c5.3,2.5,10.8,4.5,16.2,6.6c1.3-1.9,3.1-3.6,5.3-4.2c3.6-1.2,7.8-0.1,10.3,2.8c2.4,2.7,3,6.7,1.7,9.9
					c-1.4,3.5-5.1,6-8.9,6c-3.7,0.1-7.3-2.3-8.8-5.7c-0.8-1.6-0.9-3.3-0.8-5.1c-5.3-2.1-10.7-4-15.8-6.4c-3.2-1.5-6.4-3-8.9-5.5
					c-2.6-2.7-4.1-6.5-4.1-10.2c0-18.5,0-36.9,0-55.4C167.9,175.3,168.7,172.2,171,170.4z M205.2,254.2c-1.9,0.8-2.2,3.5-0.6,4.7
					c1.6,1.4,4.3,0.3,4.5-1.7C209.6,255.1,207.2,253.2,205.2,254.2z"/>
			</g>
			<path class="st1" d="M373.5,229.2c2.2-1.5,5.2-1.1,7.6-0.3c-0.3,0.8-0.5,1.5-0.8,2.3c-1.5-0.2-3.3-0.8-4.6,0.2
				c-0.9,1.1-0.5,2.7-0.6,4.1c1.4,0,2.8,0,4.2,0c0,0.8,0,1.7,0,2.5c-1.4,0-2.8,0-4.2,0c0,4.9,0,9.9,0,14.8c-1.1,0.1-2.2,0.1-3.3,0
				c0-4.9,0-9.9,0-14.8c-0.8,0-1.5,0-2.3,0c0-0.8,0-1.7,0-2.5c0.8,0,1.5,0,2.3,0C371.8,233.4,371.6,230.7,373.5,229.2z"/>
			<path class="st1" d="M403.4,231c3.3-2.9,8.3-2.5,12.1-1.1c-0.2,0.9-0.5,1.8-1,2.6c-2.8-0.8-6.2-1.4-8.6,0.6
				c-2.2,2.1-2.3,5.5-2.3,8.3c0.1,2.8,0.3,6.1,2.8,7.9c2.5,1.6,5.8,1,8.5,0.2c0.4,0.8,0.8,1.7,1,2.6c-3.6,1.3-7.9,1.8-11.3-0.2
				c-3.3-2-4.3-6.1-4.5-9.7C400,238.4,400.3,233.8,403.4,231z"/>
			<path class="st1" d="M344,229.2c1.1-0.1,2.2-0.1,3.4,0c0,7.9,0,15.8,0,23.7c-1.1,0.1-2.3,0.1-3.4,0C344,245,344,237.1,344,229.2z
				"/>
			<path class="st1" d="M356,237.2c2-1.9,5.1-2.5,7.6-1.4c1.7,0.7,2.5,2.6,2.5,4.3c0,4.3,0,8.5,0,12.8c-1.1,0.1-2.2,0.1-3.3,0
				c0-3.8,0-7.7,0-11.5c0-1.1-0.1-2.4-1.2-3c-1.9-1-4.3-0.2-5.5,1.6c-0.2,4.3,0,8.6-0.1,13c-1.1,0.1-2.2,0.1-3.3,0
				c0-5.8,0-11.5,0-17.3c1.1-0.1,2.2-0.1,3.3,0C356,236,356,236.8,356,237.2z"/>
			<g>
				<path class="st1" d="M386.8,235.5c2.5-0.5,5.4-0.4,7.4,1.4c2,1.9,2.4,4.9,2.4,7.6c0,2.6-0.5,5.6-2.6,7.3c-2.2,1.7-5.2,1.8-7.8,1
					c-2.5-0.8-3.8-3.3-4.2-5.7c-0.4-2.7-0.4-5.7,0.7-8.2C383.5,237.2,385,235.9,386.8,235.5z M387.6,238.1c-2,0.8-2.3,3.2-2.4,5.1
					c-0.1,2-0.1,4.3,1,6.1c1.3,2.1,5.1,1.9,6.1-0.4c0.7-1.5,0.8-3.2,0.8-4.8c-0.1-1.7-0.1-3.5-1.1-4.9
					C391.1,237.7,389.1,237.6,387.6,238.1z"/>
			</g>
			<g>
				<path class="st1" d="M419.2,236.5c3-1.2,6.4-1.8,9.4-0.7c2.1,0.8,2.9,3.1,2.9,5.2c0.1,4,0,8,0,12c-0.9,0-1.8,0-2.6,0
					c-0.1-0.7-0.3-1.4-0.4-2.1c-2.1,3.2-8.1,3.6-9.9-0.1c-0.9-2.3-0.9-5.6,1.4-7.1c2.5-1.5,5.5-1,8.2-0.9c-0.1-1.5,0.1-3.4-1.4-4.2
					c-2.1-1-4.5-0.2-6.7,0.4C419.8,238.2,419.5,237.3,419.2,236.5z M423.2,245.1c-1.9,0.6-2.1,3.3-1.1,4.8c1.4,1.5,4.2,1,5.2-0.7
					c0.9-1.2,0.8-2.7,0.9-4.2C426.6,245,424.8,244.6,423.2,245.1z"/>
			</g>
			<path class="st1" d="M439.5,237.1c2.4-2.4,7.1-2.8,9.1,0.4c2.1-2.2,5.7-3.1,8.4-1.4c1.3,0.9,1.9,2.5,1.9,4c0,4.3,0,8.5,0,12.8
				c-1.1,0.1-2.2,0.1-3.3,0c-0.1-4.3,0.1-8.6-0.1-12.8c-0.5-3.5-6.5-2.3-6.3,0.9c0,4,0,8,0,11.9c-1.1,0.1-2.2,0.1-3.3,0
				c-0.1-4.3,0.1-8.7-0.1-13c-0.7-3-5.4-2.2-6.2,0.3c-0.1,4.2,0,8.5,0,12.7c-1.1,0.1-2.2,0.1-3.3,0c0-5.8,0-11.5,0-17.3
				c1.1-0.1,2.2-0.1,3.3,0C439.5,236,439.5,236.8,439.5,237.1z"/>
			<g>
				<path class="st1" d="M464.1,238.5c2-3.6,7.3-4.2,10.5-1.9c2.6,2.1,2.3,5.8,1.9,8.8c-3.4,0.1-6.8,0-10.2,0c0.3,1.6,0.5,3.5,2,4.5
					c2.1,1.2,4.6,0.5,6.7-0.3c0.4,0.8,0.7,1.6,1,2.4c-2.7,1.4-6,1.9-8.9,0.8c-2.3-0.8-3.7-3.3-4-5.6
					C462.6,244.2,462.6,241.1,464.1,238.5z M467.4,239.2c-0.8,1.1-1,2.5-1.2,3.8c2.4,0,4.8,0,7.1,0c0-1.3,0.2-2.8-0.6-3.9
					C471.6,237.4,468.6,237.5,467.4,239.2z"/>
			</g>
			<path class="st1" d="M486.9,235.4c1.4-0.4,2.8,0.1,4,0.7c-0.3,1-0.7,2-1.4,2.8c-1.1-0.4-2.3-1-3.4-0.4c-1.1,0.6-2.2,1.6-2.2,2.9
				c0,3.8,0,7.7,0,11.5c-1.1,0.1-2.2,0.1-3.3,0c0-5.8,0-11.5,0-17.3c1.1-0.1,2.2-0.1,3.3,0c0,0.8,0,1.5,0,2.3
				C484.7,236.9,485.6,235.8,486.9,235.4z"/>
			<g>
				<path class="st1" d="M494,238.6c1.9-3.6,7.2-4.3,10.4-2.1c2.7,2.1,2.5,5.9,2,8.9c-3.4,0-6.8,0-10.2,0c0.3,1.6,0.5,3.5,2,4.4
					c2.1,1.2,4.6,0.6,6.7-0.3c0.4,0.8,0.8,1.6,1,2.4c-2.7,1.4-6,1.9-8.9,0.8c-2.3-0.9-3.6-3.2-4-5.6
					C492.6,244.3,492.7,241.2,494,238.6z M497.4,239.3c-0.8,1.1-0.9,2.5-1.2,3.7c2.4,0,4.8,0,7.1,0c0-1.3,0.2-2.8-0.6-3.9
					C501.5,237.3,498.5,237.5,497.4,239.3z"/>
			</g>
		</g>
	</g>
</g>
<g id="Livello_2">
</g>
<g id="Livello_3" class="st2">
</g>
</svg>
